<svg xmlns="http://www.w3.org/2000/svg" viewBox="0 0 512 512" width="512" height="512"><path d="M256 0C114.6 0 0 114.6 0 256s114.6 256 256 256 256-114.6 256-256S397.4 0 256 0zm107.3 318.6c12.5 12.5 12.5 32.8 0 45.3-6.2 6.2-14.4 9.4-22.6 9.4s-16.4-3.1-22.6-9.4L256 301.3l-62.1 62.1c-6.2 6.2-14.4 9.4-22.6 9.4s-16.4-3.1-22.6-9.4c-12.5-12.5-12.5-32.8 0-45.3L210.7 256l-62.1-62.1c-12.5-12.5-12.5-32.8 0-45.3s32.8-12.5 45.3 0L256 210.7l62.1-62.1c12.5-12.5 32.8-12.5 45.3 0s12.5 32.8 0 45.3L301.3 256l62 62.6z"/></svg>