<svg xmlns="http://www.w3.org/2000/svg" viewBox="0 0 512 512" width="512" height="512"><path d="M142.9 142.9c62.2-62.2 162.7-62.5 225.3-1L327 183c-6.9 6.9-8.9 17.2-5.2 26.2s12.5 14.8 22.2 14.8H463c4.4 0 8-3.6 8-8V97c0-9.7-5.8-18.5-14.8-22.2s-19.3-1.7-26.2 5.2l-39 39C346.4 70.8 267.6 48 182.6 56.5 87.1 66.2 8.4 140 1.5 235.8c-7.6 105.9 78.9 195.7 186.5 195.7 0 0 0 0 .1 0 97.2 0 178.4-74.4 187.1-170.1 1.1-12.4-8-23.3-20.4-24.4s-23.3 8-24.4 20.4c-5.5 60.8-57.1 107.7-118.7 107.7-68.5 0-124.2-57.2-120.7-126.4 3-59.4 51.2-106.9 110.9-108.8 41.9-1.3 79.3 18.9 102.1 51.3l-42.3 42.3c-6.9 6.9-8.9 17.2-5.2 26.2s12.5 14.8 22.2 14.8h119c4.4 0 8-3.6 8-8V137c0-9.7-5.8-18.5-14.8-22.2s-19.3-1.7-26.2 5.2l-41.4 41.4c-12.8-12.9-27.4-23.7-43.6-31.8-44.4-22.3-97.2-23-142.3-2.1z"/></svg>